<?xml version="1.0" encoding="UTF-8" standalone="no"?>
<!DOCTYPE svg PUBLIC "-//W3C//DTD SVG 1.1//EN"
 "http://www.w3.org/Graphics/SVG/1.1/DTD/svg11.dtd">
<!-- Generated by graphviz version 2.28.0 (20140111.2315)
 -->
<!-- Title: G Pages: 1 -->
<svg width="1048pt" height="410pt"
 viewBox="0.00 0.00 1048.00 410.00" xmlns="http://www.w3.org/2000/svg" xmlns:xlink="http://www.w3.org/1999/xlink">
<g id="graph0" class="graph" transform="scale(1 1) rotate(0) translate(4 406)">
<title>G</title>
<polygon fill="white" stroke="none" points="-4,4 -4,-406 1044,-406 1044,4 -4,4"/>
<g id="clust1" class="cluster"><title>cluster_1</title>
<polygon fill="none" stroke="black" points="8,-242 8,-394 376,-394 376,-242 8,-242"/>
<text text-anchor="middle" x="192" y="-377.4" font-family="Times,serif" font-size="14.00">Book</text>
</g>
<g id="clust2" class="cluster"><title>cluster_2</title>
<polygon fill="none" stroke="black" points="384,-168 384,-394 1032,-394 1032,-168 384,-168"/>
<text text-anchor="middle" x="708" y="-377.4" font-family="Times,serif" font-size="14.00">Account</text>
</g>
<g id="clust3" class="cluster"><title>cluster_3</title>
<polygon fill="none" stroke="black" points="336,-8 336,-160 895,-160 895,-8 336,-8"/>
<text text-anchor="middle" x="615.5" y="-143.4" font-family="Times,serif" font-size="14.00">AccountValueTranferring</text>
</g>
<!-- PetProject.Books.Shared.Commands.RegisterBook_1 -->
<g id="node1" class="node"><title>PetProject.Books.Shared.Commands.RegisterBook_1</title>
<polygon fill="lightblue" stroke="lightblue" points="250.506,-325 250.506,-361 343.494,-361 343.494,-325 250.506,-325"/>
<text text-anchor="middle" x="297" y="-338.8" font-family="Times,serif" font-size="14.00">RegisterBook</text>
</g>
<!-- PetProject.Books.Shared.Events.BookRegistered_1 -->
<g id="node2" class="node"><title>PetProject.Books.Shared.Events.BookRegistered_1</title>
<polygon fill="orange" stroke="orange" points="243.898,-251 243.898,-287 350.102,-287 350.102,-251 243.898,-251"/>
<text text-anchor="middle" x="297" y="-264.8" font-family="Times,serif" font-size="14.00">BookRegistered</text>
</g>
<!-- PetProject.Books.Shared.Commands.RegisterBook_1->PetProject.Books.Shared.Events.BookRegistered_1 -->
<g id="edge1" class="edge"><title>PetProject.Books.Shared.Commands.RegisterBook_1->PetProject.Books.Shared.Events.BookRegistered_1</title>
<path fill="none" stroke="black" d="M297,-324.937C297,-316.807 297,-306.876 297,-297.705"/>
<polygon fill="black" stroke="black" points="300.5,-297.441 297,-287.441 293.5,-297.441 300.5,-297.441"/>
</g>
<!-- PetProject.Books.Shared.Events.BookRegistered_1->PetProject.Books.Shared.Events.BookRegistered_1 -->
<g id="edge2" class="edge"><title>PetProject.Books.Shared.Events.BookRegistered_1->PetProject.Books.Shared.Events.BookRegistered_1</title>
<path fill="none" stroke="black" d="M350.257,-282.258C360.632,-280.718 368,-276.299 368,-269 368,-264.324 364.976,-260.83 360.075,-258.518"/>
<polygon fill="black" stroke="black" points="360.832,-255.095 350.257,-255.742 358.928,-261.831 360.832,-255.095"/>
</g>
<!-- PetProject.Books.Shared.Commands.CorrectBook_1 -->
<g id="node3" class="node"><title>PetProject.Books.Shared.Commands.CorrectBook_1</title>
<polygon fill="lightblue" stroke="lightblue" points="130.843,-325 130.843,-361 219.157,-361 219.157,-325 130.843,-325"/>
<text text-anchor="middle" x="175" y="-338.8" font-family="Times,serif" font-size="14.00">CorrectBook</text>
</g>
<!-- PetProject.Books.Shared.Events.BookCorrected_1 -->
<g id="node4" class="node"><title>PetProject.Books.Shared.Events.BookCorrected_1</title>
<polygon fill="orange" stroke="orange" points="124.236,-251 124.236,-287 225.764,-287 225.764,-251 124.236,-251"/>
<text text-anchor="middle" x="175" y="-264.8" font-family="Times,serif" font-size="14.00">BookCorrected</text>
</g>
<!-- PetProject.Books.Shared.Commands.CorrectBook_1->PetProject.Books.Shared.Events.BookCorrected_1 -->
<g id="edge3" class="edge"><title>PetProject.Books.Shared.Commands.CorrectBook_1->PetProject.Books.Shared.Events.BookCorrected_1</title>
<path fill="none" stroke="black" d="M175,-324.937C175,-316.807 175,-306.876 175,-297.705"/>
<polygon fill="black" stroke="black" points="178.5,-297.441 175,-287.441 171.5,-297.441 178.5,-297.441"/>
</g>
<!-- PetProject.Books.Shared.Commands.DeleteBook_1 -->
<g id="node5" class="node"><title>PetProject.Books.Shared.Commands.DeleteBook_1</title>
<polygon fill="lightblue" stroke="lightblue" points="19.5659,-325 19.5659,-361 102.434,-361 102.434,-325 19.5659,-325"/>
<text text-anchor="middle" x="61" y="-338.8" font-family="Times,serif" font-size="14.00">DeleteBook</text>
</g>
<!-- PetProject.Books.Shared.Events.BookDeleted_1 -->
<g id="node6" class="node"><title>PetProject.Books.Shared.Events.BookDeleted_1</title>
<polygon fill="orange" stroke="orange" points="16.0659,-251 16.0659,-287 105.934,-287 105.934,-251 16.0659,-251"/>
<text text-anchor="middle" x="61" y="-264.8" font-family="Times,serif" font-size="14.00">BookDeleted</text>
</g>
<!-- PetProject.Books.Shared.Commands.DeleteBook_1->PetProject.Books.Shared.Events.BookDeleted_1 -->
<g id="edge4" class="edge"><title>PetProject.Books.Shared.Commands.DeleteBook_1->PetProject.Books.Shared.Events.BookDeleted_1</title>
<path fill="none" stroke="black" d="M61,-324.937C61,-316.807 61,-306.876 61,-297.705"/>
<polygon fill="black" stroke="black" points="64.5001,-297.441 61,-287.441 57.5001,-297.441 64.5001,-297.441"/>
</g>
<!-- PetProject.Books.Shared.Commands.CreateAccount_1 -->
<g id="node7" class="node"><title>PetProject.Books.Shared.Commands.CreateAccount_1</title>
<polygon fill="lightblue" stroke="lightblue" points="395.021,-325 395.021,-361 494.979,-361 494.979,-325 395.021,-325"/>
<text text-anchor="middle" x="445" y="-338.8" font-family="Times,serif" font-size="14.00">CreateAccount</text>
</g>
<!-- PetProject.Books.Shared.Events.AccountCreated_1 -->
<g id="node8" class="node"><title>PetProject.Books.Shared.Events.AccountCreated_1</title>
<polygon fill="orange" stroke="orange" points="391.521,-251 391.521,-287 498.479,-287 498.479,-251 391.521,-251"/>
<text text-anchor="middle" x="445" y="-264.8" font-family="Times,serif" font-size="14.00">AccountCreated</text>
</g>
<!-- PetProject.Books.Shared.Commands.CreateAccount_1->PetProject.Books.Shared.Events.AccountCreated_1 -->
<g id="edge5" class="edge"><title>PetProject.Books.Shared.Commands.CreateAccount_1->PetProject.Books.Shared.Events.AccountCreated_1</title>
<path fill="none" stroke="black" d="M445,-324.937C445,-316.807 445,-306.876 445,-297.705"/>
<polygon fill="black" stroke="black" points="448.5,-297.441 445,-287.441 441.5,-297.441 448.5,-297.441"/>
</g>
<!-- PetProject.Books.Shared.Events.AccountValueChanged_1 -->
<g id="node9" class="node"><title>PetProject.Books.Shared.Events.AccountValueChanged_1</title>
<polygon fill="orange" stroke="orange" points="391.691,-177 391.691,-213 538.309,-213 538.309,-177 391.691,-177"/>
<text text-anchor="middle" x="465" y="-190.8" font-family="Times,serif" font-size="14.00">AccountValueChanged</text>
</g>
<!-- PetProject.Books.Shared.Events.AccountCreated_1->PetProject.Books.Shared.Events.AccountValueChanged_1 -->
<g id="edge6" class="edge"><title>PetProject.Books.Shared.Events.AccountCreated_1->PetProject.Books.Shared.Events.AccountValueChanged_1</title>
<path fill="none" stroke="black" d="M443.9,-250.937C445.326,-242.63 447.914,-232.444 450.907,-223.108"/>
<polygon fill="black" stroke="black" points="454.29,-224.036 454.276,-213.441 447.68,-221.732 454.29,-224.036"/>
</g>
<!-- PetProject.Books.Shared.Events.AccountValueChanged_1->PetProject.Books.Shared.Events.AccountCreated_1 -->
<g id="edge7" class="edge"><title>PetProject.Books.Shared.Events.AccountValueChanged_1->PetProject.Books.Shared.Events.AccountCreated_1</title>
<path fill="none" stroke="black" d="M466.035,-213.441C464.574,-221.803 461.962,-232.005 458.958,-241.315"/>
<polygon fill="black" stroke="black" points="455.59,-240.342 455.58,-250.937 462.195,-242.661 455.59,-240.342"/>
</g>
<!-- PetProject.Books.Shared.Events.AccountValueChanged_1->PetProject.Books.Shared.Events.AccountValueChanged_1 -->
<g id="edge11" class="edge"><title>PetProject.Books.Shared.Events.AccountValueChanged_1->PetProject.Books.Shared.Events.AccountValueChanged_1</title>
<path fill="none" stroke="black" d="M538.552,-207.451C548.993,-205.438 556,-201.287 556,-195 556,-190.972 553.124,-187.822 548.312,-185.548"/>
<polygon fill="black" stroke="black" points="549.139,-182.14 538.552,-182.549 547.083,-188.831 549.139,-182.14"/>
</g>
<!-- PetProject.Books.Shared.Events.AccountValueChanged_2 -->
<g id="node18" class="node"><title>PetProject.Books.Shared.Events.AccountValueChanged_2</title>
<polygon fill="orange" stroke="orange" points="343.691,-91 343.691,-127 490.309,-127 490.309,-91 343.691,-91"/>
<text text-anchor="middle" x="417" y="-104.8" font-family="Times,serif" font-size="14.00">AccountValueChanged</text>
</g>
<!-- PetProject.Books.Shared.Events.AccountValueChanged_1->PetProject.Books.Shared.Events.AccountValueChanged_2 -->
<g id="edge18" class="edge"><title>PetProject.Books.Shared.Events.AccountValueChanged_1->PetProject.Books.Shared.Events.AccountValueChanged_2</title>
<path fill="none" stroke="grey" stroke-dasharray="1,5" d="M455.054,-176.595C446.826,-162.196 435.195,-141.842 426.962,-127.434"/>
<polygon fill="grey" stroke="grey" points="426.769,-127.095 426.769,-127.095 426.769,-127.095 426.769,-127.095"/>
</g>
<!-- PetProject.Books.Shared.Commands.TransferAccountValue_1 -->
<g id="node10" class="node"><title>PetProject.Books.Shared.Commands.TransferAccountValue_1</title>
<polygon fill="lightblue" stroke="lightblue" points="528.87,-325 528.87,-361 673.13,-361 673.13,-325 528.87,-325"/>
<text text-anchor="middle" x="601" y="-338.8" font-family="Times,serif" font-size="14.00">TransferAccountValue</text>
</g>
<!-- PetProject.Books.Shared.Events.AccountTransferRequested_1 -->
<g id="node11" class="node"><title>PetProject.Books.Shared.Events.AccountTransferRequested_1</title>
<polygon fill="orange" stroke="orange" points="516.425,-251 516.425,-287 685.575,-287 685.575,-251 516.425,-251"/>
<text text-anchor="middle" x="601" y="-264.8" font-family="Times,serif" font-size="14.00">AccountTransferRequested</text>
</g>
<!-- PetProject.Books.Shared.Commands.TransferAccountValue_1->PetProject.Books.Shared.Events.AccountTransferRequested_1 -->
<g id="edge8" class="edge"><title>PetProject.Books.Shared.Commands.TransferAccountValue_1->PetProject.Books.Shared.Events.AccountTransferRequested_1</title>
<path fill="none" stroke="black" d="M601,-324.937C601,-316.807 601,-306.876 601,-297.705"/>
<polygon fill="black" stroke="black" points="604.5,-297.441 601,-287.441 597.5,-297.441 604.5,-297.441"/>
</g>
<!-- PetProject.Books.Shared.Events.AccountTransferRequested_1->PetProject.Books.Shared.Events.AccountTransferRequested_1 -->
<g id="edge9" class="edge"><title>PetProject.Books.Shared.Events.AccountTransferRequested_1->PetProject.Books.Shared.Events.AccountTransferRequested_1</title>
<path fill="none" stroke="black" d="M685.808,-281.004C696.192,-278.855 703,-274.854 703,-269 703,-265.25 700.206,-262.26 695.468,-260.031"/>
<polygon fill="black" stroke="black" points="696.397,-256.654 685.808,-256.996 694.299,-263.332 696.397,-256.654"/>
</g>
<!-- PetProject.Books.Shared.Events.AccountTransferRequested_2 -->
<g id="node16" class="node"><title>PetProject.Books.Shared.Events.AccountTransferRequested_2</title>
<polygon fill="orange" stroke="orange" points="508.425,-91 508.425,-127 677.575,-127 677.575,-91 508.425,-91"/>
<text text-anchor="middle" x="593" y="-104.8" font-family="Times,serif" font-size="14.00">AccountTransferRequested</text>
</g>
<!-- PetProject.Books.Shared.Events.AccountTransferRequested_1->PetProject.Books.Shared.Events.AccountTransferRequested_2 -->
<g id="edge19" class="edge"><title>PetProject.Books.Shared.Events.AccountTransferRequested_1->PetProject.Books.Shared.Events.AccountTransferRequested_2</title>
<path fill="none" stroke="grey" stroke-dasharray="1,5" d="M600.129,-250.79C598.596,-220.517 595.433,-158.056 593.888,-127.546"/>
<polygon fill="grey" stroke="grey" points="593.87,-127.188 593.87,-127.188 593.87,-127.188 593.87,-127.188"/>
</g>
<!-- PetProject.Books.Shared.Commands.ChangeAccountValue_1 -->
<g id="node12" class="node"><title>PetProject.Books.Shared.Commands.ChangeAccountValue_1</title>
<polygon fill="lightblue" stroke="lightblue" points="721.191,-251 721.191,-287 860.809,-287 860.809,-251 721.191,-251"/>
<text text-anchor="middle" x="791" y="-264.8" font-family="Times,serif" font-size="14.00">ChangeAccountValue</text>
</g>
<!-- PetProject.Books.Shared.Commands.ChangeAccountValue_1->PetProject.Books.Shared.Events.AccountValueChanged_1 -->
<g id="edge10" class="edge"><title>PetProject.Books.Shared.Commands.ChangeAccountValue_1->PetProject.Books.Shared.Events.AccountValueChanged_1</title>
<path fill="none" stroke="black" d="M742.417,-250.88C732.429,-247.681 721.93,-244.547 712,-242 658.156,-228.192 596.712,-216.732 548.577,-208.704"/>
<polygon fill="black" stroke="black" points="548.951,-205.219 538.515,-207.044 547.812,-212.126 548.951,-205.219"/>
</g>
<!-- PetProject.Books.Shared.Commands.ChangeAccountValue_2 -->
<g id="node17" class="node"><title>PetProject.Books.Shared.Commands.ChangeAccountValue_2</title>
<polygon fill="lightblue" stroke="lightblue" points="523.191,-17 523.191,-53 662.809,-53 662.809,-17 523.191,-17"/>
<text text-anchor="middle" x="593" y="-30.8" font-family="Times,serif" font-size="14.00">ChangeAccountValue</text>
</g>
<!-- PetProject.Books.Shared.Commands.ChangeAccountValue_1->PetProject.Books.Shared.Commands.ChangeAccountValue_2 -->
<g id="edge20" class="edge"><title>PetProject.Books.Shared.Commands.ChangeAccountValue_1->PetProject.Books.Shared.Commands.ChangeAccountValue_2</title>
<path fill="none" stroke="grey" stroke-dasharray="1,5" d="M814.519,-250.848C857.288,-217.626 939.453,-143.106 895,-90 891.259,-85.5309 751.383,-61.9177 663.328,-47.436"/>
<polygon fill="grey" stroke="grey" points="663.07,-47.3936 663.07,-47.3936 663.07,-47.3936 663.07,-47.3936"/>
</g>
<!-- PetProject.Books.Shared.Commands.CancelAccountChange_1 -->
<g id="node13" class="node"><title>PetProject.Books.Shared.Commands.CancelAccountChange_1</title>
<polygon fill="lightblue" stroke="lightblue" points="878.468,-251 878.468,-287 1023.53,-287 1023.53,-251 878.468,-251"/>
<text text-anchor="middle" x="951" y="-264.8" font-family="Times,serif" font-size="14.00">CancelAccountChange</text>
</g>
<!-- PetProject.Books.Shared.Commands.CancelAccountChange_1->PetProject.Books.Shared.Events.AccountValueChanged_1 -->
<g id="edge12" class="edge"><title>PetProject.Books.Shared.Commands.CancelAccountChange_1->PetProject.Books.Shared.Events.AccountValueChanged_1</title>
<path fill="none" stroke="black" d="M902.419,-250.892C891.528,-247.537 879.954,-244.337 869,-242 759.648,-218.669 630.954,-206.599 548.715,-200.787"/>
<polygon fill="black" stroke="black" points="548.89,-197.291 538.672,-200.092 548.407,-204.274 548.89,-197.291"/>
</g>
<!-- PetProject.Books.Shared.Commands.CancelAccountChange_2 -->
<g id="node15" class="node"><title>PetProject.Books.Shared.Commands.CancelAccountChange_2</title>
<polygon fill="lightblue" stroke="lightblue" points="720.468,-17 720.468,-53 865.532,-53 865.532,-17 720.468,-17"/>
<text text-anchor="middle" x="793" y="-30.8" font-family="Times,serif" font-size="14.00">CancelAccountChange</text>
</g>
<!-- PetProject.Books.Shared.Commands.CancelAccountChange_1->PetProject.Books.Shared.Commands.CancelAccountChange_2 -->
<g id="edge21" class="edge"><title>PetProject.Books.Shared.Commands.CancelAccountChange_1->PetProject.Books.Shared.Commands.CancelAccountChange_2</title>
<path fill="none" stroke="grey" stroke-dasharray="1,5" d="M954.131,-250.945C959.424,-216.576 966.222,-138.169 929,-90 913.527,-69.9767 889.505,-57.36 865.929,-49.4176"/>
<polygon fill="grey" stroke="grey" points="865.652,-49.3244 865.652,-49.3244 865.652,-49.3244 865.652,-49.3244"/>
</g>
<!-- NEventStore.Cqrs.Messages.CommandDispatchFailedEvent_1 -->
<g id="node14" class="node"><title>NEventStore.Cqrs.Messages.CommandDispatchFailedEvent_1</title>
<polygon fill="orange" stroke="orange" points="695.128,-91 695.128,-127 886.872,-127 886.872,-91 695.128,-91"/>
<text text-anchor="middle" x="791" y="-104.8" font-family="Times,serif" font-size="14.00">CommandDispatchFailedEvent</text>
</g>
<!-- NEventStore.Cqrs.Messages.CommandDispatchFailedEvent_1->PetProject.Books.Shared.Commands.CancelAccountChange_2 -->
<g id="edge13" class="edge"><title>NEventStore.Cqrs.Messages.CommandDispatchFailedEvent_1->PetProject.Books.Shared.Commands.CancelAccountChange_2</title>
<path fill="none" stroke="black" d="M791.474,-90.937C791.7,-82.8072 791.976,-72.8761 792.23,-63.7047"/>
<polygon fill="black" stroke="black" points="795.736,-63.534 792.516,-53.4407 788.739,-63.3396 795.736,-63.534"/>
</g>
<!-- PetProject.Books.Shared.Commands.CancelAccountChange_2->PetProject.Books.Shared.Commands.CancelAccountChange_2 -->
<g id="edge14" class="edge"><title>PetProject.Books.Shared.Commands.CancelAccountChange_2->PetProject.Books.Shared.Commands.CancelAccountChange_2</title>
<path fill="none" stroke="black" d="M865.744,-47.4514C876.07,-45.4376 883,-41.2871 883,-35 883,-30.9723 880.156,-27.8215 875.397,-25.5476"/>
<polygon fill="black" stroke="black" points="876.332,-22.1731 865.744,-22.5486 874.255,-28.8579 876.332,-22.1731"/>
</g>
<!-- PetProject.Books.Shared.Events.AccountTransferRequested_2->PetProject.Books.Shared.Commands.ChangeAccountValue_2 -->
<g id="edge15" class="edge"><title>PetProject.Books.Shared.Events.AccountTransferRequested_2->PetProject.Books.Shared.Commands.ChangeAccountValue_2</title>
<path fill="none" stroke="black" d="M593,-90.937C593,-82.8072 593,-72.8761 593,-63.7047"/>
<polygon fill="black" stroke="black" points="596.5,-63.4406 593,-53.4407 589.5,-63.4407 596.5,-63.4406"/>
</g>
<!-- PetProject.Books.Shared.Commands.ChangeAccountValue_2->PetProject.Books.Shared.Commands.ChangeAccountValue_2 -->
<g id="edge16" class="edge"><title>PetProject.Books.Shared.Commands.ChangeAccountValue_2->PetProject.Books.Shared.Commands.ChangeAccountValue_2</title>
<path fill="none" stroke="black" d="M662.973,-47.52C673.146,-45.5327 680,-41.3594 680,-35 680,-31.0254 677.323,-27.9047 672.831,-25.6379"/>
<polygon fill="black" stroke="black" points="673.564,-22.1976 662.973,-22.48 671.429,-28.8639 673.564,-22.1976"/>
</g>
<!-- PetProject.Books.Shared.Events.AccountValueChanged_2->PetProject.Books.Shared.Commands.ChangeAccountValue_2 -->
<g id="edge17" class="edge"><title>PetProject.Books.Shared.Events.AccountValueChanged_2->PetProject.Books.Shared.Commands.ChangeAccountValue_2</title>
<path fill="none" stroke="black" d="M458.71,-90.937C483.606,-80.752 515.413,-67.74 541.823,-56.9362"/>
<polygon fill="black" stroke="black" points="543.355,-60.0909 551.285,-53.0651 540.705,-53.6121 543.355,-60.0909"/>
</g>
</g>
</svg>